<svg width="16" height="16" viewBox="0 0 16 16" fill="none" xmlns="http://www.w3.org/2000/svg" >
    <g id="logo">
        <g clip-path="url(#clip0_1_2)">
        <rect width="45" height="45" fill="#FF6DCF"/>
        <path d="M17.0298 16.5455C16.8935 15.3939 16.3404 14.5 15.3707 13.8636C14.401 13.2273 13.2116 12.9091 11.8026 12.9091C10.7723 12.9091 9.87074 13.0758 9.09801 13.4091C8.33286 13.7424 7.73438 14.2008 7.30256 14.7841C6.87831 15.3674 6.66619 16.0303 6.66619 16.7727C6.66619 17.3939 6.81392 17.928 7.10938 18.375C7.41241 18.8144 7.79877 19.1818 8.26847 19.4773C8.73816 19.7652 9.23059 20.0038 9.74574 20.1932C10.2609 20.375 10.7344 20.5227 11.1662 20.6364L13.5298 21.2727C14.1359 21.4318 14.8101 21.6515 15.5526 21.9318C16.3026 22.2121 17.0185 22.5947 17.7003 23.0795C18.3897 23.5568 18.9579 24.1705 19.4048 24.9205C19.8518 25.6705 20.0753 26.5909 20.0753 27.6818C20.0753 28.9394 19.7457 30.0758 19.0866 31.0909C18.4351 32.1061 17.4806 32.9129 16.223 33.5114C14.973 34.1098 13.4541 34.4091 11.6662 34.4091C9.99953 34.4091 8.55634 34.1402 7.33665 33.6023C6.12453 33.0644 5.16998 32.3144 4.47301 31.3523C3.78362 30.3902 3.39347 29.2727 3.30256 28H6.21165C6.28741 28.8788 6.58286 29.6061 7.09801 30.1818C7.62074 30.75 8.27983 31.1742 9.07528 31.4545C9.87831 31.7273 10.742 31.8636 11.6662 31.8636C12.742 31.8636 13.7079 31.6894 14.5639 31.3409C15.42 30.9848 16.098 30.4924 16.598 29.8636C17.098 29.2273 17.348 28.4848 17.348 27.6364C17.348 26.8636 17.1321 26.2348 16.7003 25.75C16.2685 25.2652 15.7003 24.8712 14.9957 24.5682C14.2912 24.2652 13.5298 24 12.7116 23.7727L9.84801 22.9545C8.02983 22.4318 6.59044 21.6856 5.52983 20.7159C4.46922 19.7462 3.93892 18.4773 3.93892 16.9091C3.93892 15.6061 4.29119 14.4697 4.99574 13.5C5.70786 12.5227 6.66241 11.7652 7.85938 11.2273C9.06392 10.6818 10.4086 10.4091 11.8935 10.4091C13.3935 10.4091 14.7268 10.678 15.8935 11.2159C17.0601 11.7462 17.9844 12.4735 18.6662 13.3977C19.3556 14.322 19.7192 15.3712 19.7571 16.5455H17.0298ZM25.6634 10.7273L32.5724 30.3182H32.8452L39.7543 10.7273H42.7088L34.1634 34H31.2543L22.7088 10.7273H25.6634Z" fill="#0B0114"/>
        <rect x="5.4672" y="47.0378" width="3.01518" height="52.206" transform="rotate(-119.118 5.4672 47.0378)" fill="#FF6DCF"/>
        <rect x="1.4672" y="39.0378" width="3.01518" height="52.206" transform="rotate(-119.118 1.4672 39.0378)" fill="#FF6DCF"/>
        <rect x="-1.5328" y="32.0378" width="3.01518" height="52.206" transform="rotate(-119.118 -1.5328 32.0378)" fill="#FF6DCF"/>
        <rect x="1.98392" y="19.7371" width="3.01518" height="34.1196" transform="rotate(-119.118 1.98392 19.7371)" fill="#FF6DCF"/>
        </g>
        <defs>
        <clipPath id="clip0_1_2">
        <rect width="45" height="45" fill="white"/>
        </clipPath>
        </defs>
    </g>
    <g id="github">
        <path fill-rule="evenodd" clip-rule="evenodd" d="M44 0C19.69 0 0 19.69 0 44C0 63.47 12.595 79.915 30.085 85.745C32.285 86.13 33.11 84.81 33.11 83.655C33.11 82.61 33.055 79.145 33.055 75.46C22 77.495 19.14 72.765 18.26 70.29C17.765 69.025 15.62 65.12 13.75 64.075C12.21 63.25 10.01 61.215 13.695 61.16C17.16 61.105 19.635 64.35 20.46 65.67C24.42 72.325 30.745 70.455 33.275 69.3C33.66 66.44 34.815 64.515 36.08 63.415C26.29 62.315 16.06 58.52 16.06 41.69C16.06 36.905 17.765 32.945 20.57 29.865C20.13 28.765 18.59 24.255 21.01 18.205C21.01 18.205 24.695 17.05 33.11 22.715C36.63 21.725 40.37 21.23 44.11 21.23C47.85 21.23 51.59 21.725 55.11 22.715C63.525 16.995 67.21 18.205 67.21 18.205C69.63 24.255 68.09 28.765 67.65 29.865C70.455 32.945 72.16 36.85 72.16 41.69C72.16 58.575 61.875 62.315 52.085 63.415C53.68 64.79 55.055 67.43 55.055 71.555C55.055 77.44 55 82.17 55 83.655C55 84.81 55.825 86.185 58.025 85.745C66.7597 82.796 74.3497 77.1822 79.7268 69.6937C85.1039 62.2052 87.9974 53.219 88 44C88 19.69 68.31 0 44 0Z" fill="#FFFEFE"/>
    </g>
    <g id="linkedin">
        <ellipse cx="19.3521" cy="18.868" rx="18.8683" ry="18.8683" fill="#FF6DCF"/>
        <path d="M10.0634 28.7051H14.0114V14.0974H10.0634V28.7051ZM12.0374 7.64899C10.7214 7.64899 9.66858 8.70179 9.66858 10.0178C9.66858 11.3338 10.7214 12.3866 12.0374 12.3866C13.3534 12.3866 14.4062 11.3338 14.4062 10.0178C14.4062 8.70179 13.3534 7.64899 12.0374 7.64899ZM20.723 16.3346V14.0974H16.775V28.7051H20.723V21.2039C20.723 16.9926 26.1187 16.7294 26.1187 21.2039V28.7051H30.0667V19.7563C30.0667 12.6498 22.5655 12.913 20.723 16.3346Z" fill="#0B0114"/>
        <defs>
        <linearGradient id="paint0_linear_1_3196" x1="0.483887" y1="18.868" x2="38.2204" y2="18.868" gradientUnits="userSpaceOnUse">
        <stop stop-color="#13b0f5"/>
        <stop offset="1" stop-color="#00D9F5"/>
        </linearGradient>
        </defs>
    </g>
    <g id="gmail">
        <circle cx="19.2479" cy="18.8683" r="18.8683" fill="#FF6DCF"/>
        <g clip-path="url(#clip0_1_3190)">
        <path d="M31.0406 11.4974V26.2383C31.0406 27.0748 30.4031 27.7123 29.5666 27.7123H28.0925V14.3343L19.248 20.6876L10.4035 14.3343V27.7123H8.9294C8.09286 27.7123 7.45532 27.0748 7.45532 26.2383V11.4974C7.45532 11.0788 7.61305 10.7103 7.87765 10.4494C8.01545 10.3115 8.17958 10.2027 8.36026 10.1295C8.54094 10.0563 8.73449 10.0202 8.9294 10.0233H9.42101L19.248 17.1483L29.0749 10.0233H29.5666C29.9852 10.0233 30.3537 10.1811 30.6183 10.4494C30.8829 10.7103 31.0406 11.0788 31.0406 11.4974Z" fill="#0B0114"/>
        </g>
        <defs>
        <linearGradient id="paint0_linear_1_3190" x1="0.379639" y1="18.8683" x2="38.1161" y2="18.8683" gradientUnits="userSpaceOnUse">
        <stop stop-color="#00F5A0"/>
        <stop offset="1" stop-color="#00D9F5"/>
        </linearGradient>
        <clipPath id="clip0_1_3190">
        <rect width="23.5853" height="23.5853" fill="white" transform="translate(7.45508 7.07556)"/>
        </clipPath>
        </defs>
    </g>
</svg>